<svg width="48" height="48" viewBox="0 0 48 48" fill="none" xmlns="http://www.w3.org/2000/svg">
<path d="M34.9994 15.9999C32.6661 16.3332 28.1994 18.9999 28.9994 26.9999M25.9995 18.9999C25.9995 20.3332 25.1995 22.9999 21.9995 22.9999C18.7995 22.9999 17.9995 25.6666 17.9995 26.9999M23.9995 25.9999C23.9995 27.1754 24.3548 28.8417 25.4235 30.0012M33.9995 26.9999C33.9995 28.5916 33.1198 29.6849 32.2355 30.3379M32.2355 30.3379C31.7865 30.6695 31.3363 30.8876 30.9995 30.9999C28.2208 31.7938 26.4761 31.1433 25.4235 30.0012M32.2355 30.3379C32.8235 30.8919 34.3995 31.7999 35.9995 30.9999M35.9995 30.9999C37.9995 33.9999 44.9995 29.9999 40.9995 25.9999C41.6662 24.9999 43.1995 22.3999 39.9995 19.9999M35.9995 30.9999C37.0644 36.3252 33.9968 37.1629 30.8957 36.0012C30.596 35.889 30.2961 35.7581 29.9995 35.6107M39.9995 19.9999C39.9208 21.1176 39.0107 23.2824 35.9995 22.9999M39.9995 19.9999C40.3328 18.9999 40.3995 16.5999 37.9995 14.9999C37.9995 13.6666 37.1995 10.9999 33.9995 10.9999M33.9995 10.9999C30.7995 10.9999 29.9995 13.6666 29.9995 14.9999M33.9995 10.9999C33.3328 9.66657 30.9995 6.99867 27.9995 8.99867C26.9995 8.00207 24.3995 6.39993 21.9995 7.99993M21.9995 7.99993C22.9995 8.33356 24.7995 9.60081 23.9995 12.0008M21.9995 7.99993C20.3328 7.33356 16.7995 7.00081 15.9995 11.0008M16.9995 9.00122C15.6662 8.33499 12.5995 7.80228 10.9995 11.0012C8.99954 11.0012 6.99944 12.0008 6.99949 16.0012M6.99949 16.0012C7.33282 15.3337 8.39949 14.1988 9.99949 14.9999M6.99949 16.0012C6.30762 17.385 5.71149 19.8218 6.99949 21.4571M9.99949 23.0012C8.52046 22.7547 7.57312 22.1854 6.99949 21.4571M6.99949 21.4571C6.33281 23.9718 6.79945 28.8012 13.9995 28.0012M13.9995 28.0012C13.1995 25.6012 14.9995 23.667 15.9995 22.9999M13.9995 28.0012C13.9995 31.3631 18.2199 34.8768 22.8019 32.2224M25.4235 30.0012C24.5542 30.9926 23.6715 31.7186 22.8019 32.2224M25.4235 30.0012C25.4235 32.1535 27.6009 34.4192 29.9995 35.6107M19.9995 12.0008C19.9995 14.3343 17.9995 19.0012 9.99945 19.0012M22.8019 32.2224C23.9995 36.0012 26.9995 37.0012 26.9995 40.0012M29.9995 35.6107C30.3328 36.4076 30.9995 38.4012 30.9995 40.0012" stroke="white" stroke-width="1.5" stroke-linecap="round" stroke-linejoin="round"/>
</svg>
