<svg width="48" height="48" viewBox="0 0 48 48" fill="none" xmlns="http://www.w3.org/2000/svg">
<circle cx="24.0002" cy="24.0007" r="2" fill="white"/>
<circle cx="24" cy="24" r="6" stroke="white" stroke-width="1.5"/>
<path d="M30 14C28.1755 9.62899 25.2712 6 22 6C16.4772 6 12 14.0589 12 24C12 33.9411 16.4772 42 22 42C25.0696 42 27.8161 39.5106 29.6505 35.5922M30 14L32 10M30 14L25 13" stroke="white" stroke-width="1.5" stroke-linecap="round" stroke-linejoin="round"/>
<path d="M12.3721 18.3657C8.47432 20.2 6 22.9392 6 25.9994C6 31.5222 14.0589 35.9994 24 35.9994C33.9411 35.9994 42 31.5223 42 25.9994C42 22.5093 38.7816 19.4367 33.9037 17.6478M33.9037 17.6478L38 16.0007M33.9037 17.6478L36 22.0007" stroke="white" stroke-width="1.5" stroke-linecap="round" stroke-linejoin="round"/>
</svg>
