<svg width="48" height="48" viewBox="0 0 48 48" fill="none" xmlns="http://www.w3.org/2000/svg">
<path d="M8.99933 32.0012L10.9993 31.0012M5.99933 23.0012H8.99933M8.99933 14.0012L10.9993 15.0012M14.9993 7.00122L15.9993 9.00122M23.9993 5.00122V7.51065M32.9993 7.00122L31.9993 9.00122M39.9993 14.0012L36.9993 15.0012M41.9993 23.0012H38.9993M39.9993 32.0012L36.9993 31.0012" stroke="white" stroke-width="1.5" stroke-linecap="round" stroke-linejoin="round"/>
<rect x="19.9991" y="35.0012" width="8" height="4" rx="0.4" stroke="white" stroke-width="1.5"/>
<path d="M20.9993 39.0385C20.9993 39.0183 21.0157 39.002 21.0359 39.002H26.9627C26.9829 39.002 26.9993 39.0183 26.9993 39.0385V39.0385C26.9993 40.6752 25.6726 42.002 24.0359 42.002H23.9627C22.3261 42.002 20.9993 40.6752 20.9993 39.0385V39.0385Z" stroke="white" stroke-width="1.5"/>
<path d="M21.3102 33.7712V32.2695C18.3949 30.4701 13.9993 26.9618 13.9993 23.2335C13.9993 16.8254 19.7665 11.8026 26.2816 13.2525C29.1462 13.8997 31.6559 15.8416 32.9614 18.5213C35.6105 23.9584 30.822 29.7322 26.7279 32.2565V33.7582C26.7279 34.1336 26.8673 35.001 25.5111 35.001H22.527C21.1328 35.0139 21.3102 34.4573 21.3102 33.7712Z" stroke="white" stroke-width="1.5" stroke-linecap="round" stroke-linejoin="round"/>
</svg>
