<svg width="48" height="48" viewBox="0 0 48 48" fill="none" xmlns="http://www.w3.org/2000/svg">
<path d="M32.5397 14.396C32.6201 13.5443 32.677 12.7371 32.7152 12H15.65C15.65 12.7371 15.6774 13.5443 15.7356 14.396M32.5397 14.396H35.0827C36.147 14.396 37.0321 15.2298 36.9596 16.2916C36.6753 20.455 34.8068 26.5436 28.7516 27.6363M32.5397 14.396C32.1242 18.7982 31.081 24.3892 28.7516 27.6363M28.7516 27.6363C27.9663 28.731 27.0349 29.5592 25.932 29.9858M15.7356 14.396H13.1165C11.9675 14.396 11.0514 15.3623 11.2291 16.4975C11.9295 20.9744 14.2036 27.2829 19.5516 27.6363M15.7356 14.396C16.0361 18.7982 17.1572 24.3892 19.5516 27.6363M19.5516 27.6363C20.3971 28.783 21.4015 29.6375 22.5846 30.044M22.5846 30.044C23.0848 30.2159 23.617 30.3077 24.1826 30.3077C24.809 30.3077 25.3911 30.1951 25.932 29.9858M22.5846 30.044V36.7692M22.5846 36.7692H25.932M22.5846 36.7692H19.3994C18.2949 36.7692 17.3994 37.6647 17.3994 38.7692V40H32.3315V38.7692C32.3315 37.6647 31.4361 36.7692 30.3315 36.7692H25.932M25.932 36.7692V29.9858" stroke="white" stroke-width="1.5" stroke-linecap="round" stroke-linejoin="round"/>
<path d="M23.9051 16.2934C23.9351 16.2013 24.0654 16.2013 24.0953 16.2934L25.1004 19.3865C25.1138 19.4278 25.1521 19.4556 25.1955 19.4556H28.4478C28.5446 19.4556 28.5849 19.5796 28.5065 19.6365L25.8754 21.5482C25.8403 21.5737 25.8257 21.6188 25.8391 21.66L26.8441 24.7531C26.874 24.8452 26.7686 24.9219 26.6902 24.8649L24.059 22.9533C24.024 22.9278 23.9765 22.9278 23.9415 22.9533L21.3103 24.8649C21.2319 24.9219 21.1265 24.8452 21.1564 24.7531L22.1614 21.66C22.1748 21.6188 22.1602 21.5737 22.1251 21.5482L19.494 19.6365C19.4156 19.5796 19.4559 19.4556 19.5527 19.4556H22.805C22.8483 19.4556 22.8867 19.4278 22.9001 19.3865L23.9051 16.2934Z" stroke="white" stroke-width="1.5"/>
<path d="M39.4491 6.86333C39.5927 6.55555 40.0304 6.55555 40.174 6.86333L40.7768 8.1549C40.9754 8.58059 41.3176 8.92275 41.7433 9.12142L43.0349 9.7242C43.3426 9.86784 43.3426 10.3055 43.0349 10.4491L41.7433 11.0519C41.3176 11.2506 40.9754 11.5928 40.7768 12.0184L40.174 13.31C40.0303 13.6178 39.5927 13.6178 39.4491 13.31L38.8463 12.0184C38.6476 11.5928 38.3054 11.2506 37.8798 11.0519L36.5882 10.4491C36.2804 10.3055 36.2804 9.86784 36.5882 9.7242L37.8798 9.12142C38.3054 8.92275 38.6476 8.58059 38.8463 8.1549L39.4491 6.86333Z" stroke="white" stroke-width="1.2"/>
<path d="M7.63778 6.77666C7.78142 6.46888 8.21907 6.46888 8.36271 6.77666L8.96549 8.06823C9.16416 8.49392 9.50633 8.83609 9.93201 9.03475L11.2236 9.63753C11.5314 9.78117 11.5314 10.2188 11.2236 10.3625L9.93201 10.9652C9.50633 11.1639 9.16416 11.5061 8.96549 11.9318L8.36271 13.2233C8.21907 13.5311 7.78142 13.5311 7.63778 13.2233L7.035 11.9318C6.83633 11.5061 6.49416 11.1639 6.06848 10.9652L4.7769 10.3625C4.46912 10.2188 4.46912 9.78117 4.7769 9.63753L6.06848 9.03475C6.49416 8.83608 6.83633 8.49392 7.035 8.06823L7.63778 6.77666Z" stroke="white" stroke-width="1.2"/>
<path d="M9.63778 30.7767C9.78142 30.4689 10.2191 30.4689 10.3627 30.7767L10.9655 32.0682C11.1642 32.4939 11.5063 32.8361 11.932 33.0348L13.2236 33.6375C13.5314 33.7812 13.5314 34.2188 13.2236 34.3625L11.932 34.9652C11.5063 35.1639 11.1642 35.5061 10.9655 35.9318L10.3627 37.2233C10.2191 37.5311 9.78142 37.5311 9.63778 37.2233L9.035 35.9318C8.83633 35.5061 8.49416 35.1639 8.06848 34.9652L6.7769 34.3625C6.46912 34.2188 6.46912 33.7812 6.7769 33.6375L8.06848 33.0348C8.49416 32.8361 8.83633 32.4939 9.035 32.0682L9.63778 30.7767Z" stroke="white" stroke-width="1.2"/>
<path d="M37.638 30.7767C37.7817 30.4689 38.2193 30.4689 38.363 30.7767L38.9657 32.0682C39.1644 32.4939 39.5066 32.8361 39.9323 33.0348L41.2238 33.6375C41.5316 33.7812 41.5316 34.2188 41.2238 34.3625L39.9323 34.9652C39.5066 35.1639 39.1644 35.5061 38.9657 35.9318L38.363 37.2233C38.2193 37.5311 37.7817 37.5311 37.638 37.2233L37.0352 35.9318C36.8366 35.5061 36.4944 35.1639 36.0687 34.9652L34.7771 34.3625C34.4694 34.2188 34.4694 33.7812 34.7771 33.6375L36.0687 33.0348C36.4944 32.8361 36.8366 32.4939 37.0352 32.0682L37.638 30.7767Z" stroke="white" stroke-width="1.2"/>
</svg>
